<svg xmlns="http://www.w3.org/2000/svg" viewBox="0 0 128 128">
  <rect width="128" height="128" rx="28" fill="#F8F4E9"/>
  <path d="M101 42C90 20 65 10 41 19 18 27 7 52 17 76c9 23 35 35 58 27 14-5 25-15 31-28" fill="none" stroke="#587052" stroke-width="10" stroke-linecap="round"/>
  <ellipse cx="64" cy="62" rx="33" ry="20" fill="#232720" transform="rotate(-8 64 62)"/>
  <ellipse cx="64" cy="62" rx="24" ry="13" fill="#FBF8F0" transform="rotate(-8 64 62)"/>
  <path d="M41 59c14-14 35-19 54-10-4 11-16 20-31 22-10 2-20-1-23-12Z" fill="#D46F58"/>
</svg>
