<svg xmlns="http://www.w3.org/2000/svg" width="261" height="156" viewBox="0 0 261 156" fill="none"><g clip-path="url(#clip0_288_984)"><path d="M63.3107 65.3291C69.7081 61.8032 75.8993 57.8436 82.085 53.5335C90.3715 47.6775 99.7391 39.6581 103.779 29.353C111.893 8.82627 92.3107 -7.27925 73.3972 3.39844C58.0112 12.9194 51.5135 37.1833 48.0751 55.2909C42.274 58.4609 36.5175 61.7031 30.7498 64.9342C26.6539 67.2255 22.7141 69.9727 18.2615 71.5577C14.8399 72.7756 11.3348 73.8712 7.75712 74.5386C6.29152 74.8111 4.79248 75.028 3.29901 74.9946C2.24021 74.9668 1.80555 75.217 1.37645 76.2737L0.456969 78.4815C-0.189457 80.0665 -0.373354 80.7505 1.30958 81.4568C14.266 86.6622 31.764 79.8441 44.5532 74.0826C44.113 76.8076 43.7174 79.5493 43.3551 82.3021C25.5617 92.4738 7.43948 114.268 8.58745 136.13C9.22273 156.356 31.6192 163.264 45.9854 146.824C48.8888 143.465 51.0342 139.328 52.0039 134.929C55.7264 119.885 56.9022 105.042 58.8136 90.5718C61.7058 89.2426 71.926 84.788 73.3359 83.9427C84.3976 78.437 95.9775 70.8848 99.7892 60.3461C100.385 58.6221 99.7502 58.3051 98.1341 57.7268L95.8717 56.9426C94.7961 56.5589 94.3225 56.7146 93.637 57.521C92.5727 58.7723 91.4247 59.8957 90.2154 60.919C86.3592 63.8275 82.0961 66.0632 77.6101 67.9929C77.5488 68.0152 77.4931 68.043 77.4318 68.0652C72.3161 70.2564 66.9274 72.0638 61.5498 74.0381C61.5999 73.8045 61.6445 73.5653 61.6947 73.3318C62.2241 70.7791 62.759 68.0597 63.2996 65.3291H63.3107ZM38.0723 128.383C37.3813 130.919 36.4228 133.388 35.0519 135.752C31.3405 142.147 28.2644 136.541 27.6904 132.12C26.5759 123.567 29.039 115.158 34.5727 108.39L41.7725 101.127C41.7725 101.127 40.4796 119.502 38.0723 128.383ZM85.9858 18.959C86.5486 19.187 86.6155 19.3038 86.7827 19.504C88.4433 23.7472 84.47 28.9637 81.2268 32.4785C77.5154 36.3269 71.196 43.1728 66.6042 46.315C70.0202 34.6863 77.8219 16.7344 85.9858 18.959Z" fill="black"></path><path d="M201.73 83.2583L199.422 82.6077C198.325 82.2851 197.745 81.2062 197.221 82.0571C195.906 84.1926 193.621 85.8944 191.621 87.3348C189.425 88.9142 183.429 95.2874 180.815 92.0229C178.659 89.3368 180.743 83.4307 181.44 80.5778C183.345 74.0877 186.594 61.8974 190.406 56.8644C191.415 55.5241 191.977 54.0671 190.183 53.1717C187.943 52.0539 185.586 51.4922 183.234 51.4922C178.637 51.4922 174.268 53.6166 171.91 57.7542C168.773 54.0615 163.841 51.4922 158.798 51.4922C146.131 51.4922 136.719 70.0614 133.688 79.2319C129.43 92.6569 133.353 107.422 149.492 107.422C157.784 107.422 163.167 104.18 166.867 99.147C166.488 99.6642 169.263 102.873 169.659 103.29C170.824 104.519 172.228 105.515 173.788 106.176C179.656 108.657 186.16 102.812 190.69 99.3194C194.792 96.155 198.564 92.3455 201.401 87.9966C202.259 86.6841 203.084 87.2903 203.535 85.7776C204.037 83.9146 203.39 83.6309 201.735 83.2583H201.73ZM168.544 68.6043C167.201 73.6373 165.741 79.0095 164.956 84.1537C164.281 88.1801 161.255 92.8794 156.664 92.8794C151.286 92.8794 150.16 85.3827 150.5 81.5788C151.063 75.8729 154.986 62.4535 162.493 62.4535C166.193 62.4535 169.33 65.4733 168.544 68.6043Z" fill="black"></path><path d="M143.312 83.2586L141.004 82.6079C139.907 82.2854 139.327 82.4578 138.803 83.3142C137.488 85.4498 135.203 87.1515 133.203 88.5919C131.007 90.1713 125.011 95.2877 122.397 92.0288C120.241 89.3427 122.325 83.4366 123.022 80.5836C124.927 74.0936 128.176 61.9032 131.988 56.8703C132.997 55.53 133.559 54.0729 131.765 53.1776C129.525 52.0597 127.168 51.498 124.816 51.498C120.219 51.498 115.85 53.6225 113.492 57.7601C110.355 54.0674 105.423 51.498 100.38 51.498C87.7134 51.498 78.3012 70.0672 75.2697 79.2378C71.0122 92.6628 74.9353 107.428 91.0736 107.428C99.3657 107.428 104.749 104.186 108.449 99.1528C108.07 99.67 110.845 102.879 111.241 103.296C112.406 104.525 113.81 105.521 115.37 106.182C121.238 108.663 127.742 104.825 132.272 101.338C136.374 98.174 140.146 94.3645 142.983 90.0156C143.841 88.7031 144.666 87.2961 145.117 85.789C145.619 83.926 144.972 83.6424 143.317 83.2697L143.312 83.2586ZM110.126 68.6046C108.783 73.6376 107.323 79.0098 106.538 84.154C105.863 88.1804 102.837 92.8797 98.2456 92.8797C92.868 92.8797 91.7424 85.383 92.0823 81.5791C92.6451 75.8732 96.5683 62.4538 104.075 62.4538C107.775 62.4538 110.912 65.4736 110.126 68.6046Z" fill="black"></path><path d="M258.855 79.1204L256.503 78.6755C255.383 78.5642 254.82 78.6755 254.374 79.6821C252.022 84.2701 243.725 92.5454 238.119 92.5454C235.99 92.5454 235.093 91.0939 234.641 88.8526C233.967 84.715 233.521 79.2316 229.598 76.996C234.196 74.6435 238.342 72.5191 241.256 70.061C246.299 66.0346 246.634 57.4202 244.171 52.6097C243.725 51.8255 243.273 51.4918 242.599 51.4918C241.925 51.4918 241.256 51.9367 240.582 52.4984C235.678 56.1689 224.505 64.2661 212.451 72.4857L214.285 66.0736C217.015 56.1077 221.674 38.9622 225.335 34.1517C226.232 32.9227 226.907 31.4656 225.112 30.5702C223.206 29.5636 220.515 29.002 217.717 29.002C211.665 29.002 205.051 31.3488 203.479 37.0547C199.885 49.5788 186.672 103.095 186.672 103.095C186.21 104.764 187.464 106.41 189.197 106.41H196.558C201.501 106.41 205.792 103.001 206.895 98.1901L208.779 90.0094L215.472 85.0432C217.6 89.1808 215.137 95.3371 220.403 101.822C223.206 105.292 227.352 107.416 232.847 107.416C245.062 107.416 258.738 92.2006 260.866 81.4672C261.312 79.6765 260.532 79.4541 258.849 79.1204H258.855Z" fill="black"></path></g><defs><clipPath id="clip0_288_984"><rect width="261" height="156" fill="white"></rect></clipPath></defs></svg>